<svg width="145" height="54" viewBox="0 0 145 54" fill="none" xmlns="http://www.w3.org/2000/svg">
<path fill-rule="evenodd" clip-rule="evenodd" d="M108.07 0.903223C104.633 1.80306 98.0068 4.79523 98.0068 5.44709C98.0068 5.64356 99.4518 5.19729 101.218 4.45517C113.015 -0.501693 125.224 1.57149 133.602 9.95403C139.206 15.5614 141.617 21.723 141.2 29.3689C140.785 36.9756 137.795 43.5539 132.032 49.5401C130.282 51.3576 129.02 52.845 129.228 52.845C129.435 52.845 130.703 52.0158 132.046 51.0025C137.121 47.1702 141.669 40.2194 143.367 33.6995C144.39 29.7705 144.393 22.8194 143.372 19.2856C140.721 10.1072 133.105 2.82826 123.878 0.652507C119.792 -0.310694 112.25 -0.191262 108.07 0.903223ZM110.014 3.17196C100.417 4.8946 92.0406 12.6773 89.5686 22.168C88.7914 25.1524 88.6902 32.0425 89.3794 35.067C89.9666 37.643 92.5248 43.2722 93.1087 43.2722C93.3549 43.2722 93.3922 42.924 93.1944 42.4745C90.2998 35.9026 89.735 29.6456 91.5173 23.8988C94.9462 12.8464 104.868 5.43706 116.241 5.43706C122.541 5.43706 128.722 7.87492 133.723 12.3322C137.308 15.5272 136.951 14.2604 133.221 10.5498C129.962 7.30785 126.283 5.08515 122.181 3.87989C119.06 2.96319 113.107 2.61674 110.014 3.17196ZM109.717 7.03343C105.829 8.10193 102.421 10.1268 99.2603 13.2466C86.3772 25.9615 91.9417 47.8507 109.372 53.0218C112.612 53.9832 119.393 53.9869 122.653 53.0296C125.408 52.2205 130.372 49.7311 130.372 49.1586C130.372 48.9562 129.023 49.4216 127.375 50.1929C122.911 52.2816 118.539 52.7862 113.64 51.7778C106.805 50.3706 101.93 47.172 98.4421 41.8039C96.7286 39.1664 94.9562 33.8608 95.4093 32.7231C95.5447 32.3825 95.6719 32.6442 95.6915 33.3047C95.7111 33.9652 96.5512 36.151 97.5577 38.1627C103.171 49.3769 117.444 54.2449 128.934 48.8641C132.216 47.3274 136.086 43.3711 137.716 39.8867C143.915 26.6403 136.402 10.8156 122.107 7.01109C119.098 6.21017 112.669 6.22157 109.717 7.03343ZM124.059 9.38286C129.484 11.9493 132.617 16.2242 133.652 22.4725C134.909 30.0545 130.652 38.6577 124.627 40.7104C120.423 42.1431 119.641 40.3047 121.47 33.2892C123.587 25.1697 123.728 23.9895 122.812 22.0586C121.128 18.5103 117.798 17.8898 113.508 20.3245C112.115 21.1159 110.284 21.626 107.816 21.9118C105.814 22.1429 103.997 22.513 103.775 22.7341C102.814 23.6955 104.167 24.1267 108.147 24.1267C111.781 24.1267 112.439 24.2512 113.355 25.1109C114.124 25.8329 114.95 26.0864 116.461 26.0636C117.641 26.0458 118.52 26.2409 118.52 26.5208C118.52 27.5478 116.114 31.0387 112.581 35.1368C110.562 37.4803 108.789 39.9605 108.643 40.6484L108.378 41.8997L106.554 40.8763C103.858 39.3643 100.503 35.4513 99.3223 32.4445C98.5095 30.3741 98.288 28.8689 98.2643 25.2663C98.2383 21.2572 98.3796 20.3993 99.4358 18.146C102.611 11.3749 109.097 7.6005 117.152 7.83572C120.409 7.93053 121.51 8.17715 124.059 9.38286ZM63.8183 9.36827C59.853 10.1122 58.6395 11.6548 58.6021 16.0017C58.5816 18.4054 58.7767 19.3153 59.5316 20.3323C61.0445 22.3699 62.2616 22.7451 67.3812 22.7523C72.36 22.7596 73.8469 23.1731 73.8469 24.5497C73.8469 25.7226 72.989 25.9501 68.5715 25.9501C65.2315 25.9501 64.6644 25.8325 64.1684 25.0384C63.7048 24.2958 63.1054 24.1267 60.9374 24.1267H58.2757L58.5848 25.6082C58.9896 27.5492 59.8994 28.9418 61.4115 29.9324C62.4317 30.6011 63.6793 30.736 68.8126 30.7342C76.9841 30.7315 78.4177 30.0235 79.1179 25.6461C79.5578 22.8932 78.6288 20.1467 76.9007 19.0933C75.6927 18.3566 74.5964 18.2039 70.512 18.2026C65.1494 18.2007 63.8183 17.8073 63.8183 16.2246C63.8183 14.4715 64.668 14.0981 68.6585 14.0981C73.0009 14.0981 73.8469 14.3292 73.8469 15.5144C73.8469 16.267 74.2034 16.3773 76.6326 16.3773H79.4187L79.106 14.6679C78.3306 10.4249 76.6071 9.39745 70.0343 9.26069C67.2422 9.20234 64.4451 9.25066 63.8183 9.36827ZM0 20.2288V30.9644H2.27923H4.55845V22.7592V14.554H7.29353H10.0286V22.7592V30.9644H12.5357H15.0429V22.7592V14.554H17.0609C18.6983 14.554 19.2576 14.7805 20.0239 15.7551C20.8868 16.8519 20.9689 17.5648 20.9689 23.9603V30.9644H23.513H26.057L25.9061 22.8731C25.7407 14.0001 25.417 12.7944 22.6459 10.7271C21.4389 9.82594 20.71 9.75939 10.68 9.63038L0 9.49272V20.2288ZM31.4533 25.6939V41.9047H33.9605H36.4676V36.2426V30.581L42.3622 30.4306C48.7559 30.2679 49.5978 29.972 51.7102 27.1421C52.5453 26.0235 52.6501 25.2308 52.6501 20.0241C52.6501 13.6359 52.3876 12.8559 49.513 10.7075C48.3684 9.85192 47.5032 9.75483 39.8546 9.62537L31.4533 9.48314V25.6939ZM46.8253 15.6767C47.8469 16.8646 47.9394 17.3073 47.789 20.2903C47.5428 25.1619 47.1207 25.4943 41.1833 25.4943H36.4676V19.7433V13.9919L41.0812 14.1774C45.4979 14.3548 45.7432 14.419 46.8253 15.6767ZM77.4937 34.6112C77.4937 35.2188 77.7978 35.5229 78.4054 35.5229C79.013 35.5229 79.3171 35.2188 79.3171 34.6112C79.3171 34.0035 79.013 33.6995 78.4054 33.6995C77.7978 33.6995 77.4937 34.0035 77.4937 34.6112ZM39.2939 36.5257C38.993 36.8266 38.7469 38.0574 38.7469 39.2608C38.7469 41.1448 38.8736 41.4488 39.6585 41.4488C40.4194 41.4488 40.5702 41.1448 40.5702 39.6113C40.5702 38.3983 40.8027 37.6845 41.254 37.5113C41.6301 37.3667 41.9378 36.9629 41.9378 36.6137C41.9378 35.8328 40.0497 35.7699 39.2939 36.5257ZM42.8773 36.6287C42.5805 36.9861 42.4018 38.1658 42.4798 39.2498L42.6215 41.2209L45.0147 41.3586C46.8937 41.4671 47.4079 41.3504 47.4079 40.8166C47.4079 40.3662 46.8299 40.0758 45.6985 39.9573L43.9891 39.7786L45.9264 39.702C47.7261 39.6309 47.8638 39.5347 47.8638 38.3491C47.8638 37.6471 47.6176 36.8266 47.3167 36.5257C46.5591 35.7681 43.5332 35.8388 42.8773 36.6287ZM48.9605 36.6105C48.827 36.9579 48.7823 38.1371 48.8607 39.2316L49.0034 41.2209L51.6245 41.3577C53.7054 41.4662 54.2456 41.354 54.2456 40.8139C54.2456 40.3398 53.6594 40.0913 52.3083 39.9933C50.5829 39.8689 50.3709 39.7285 50.3709 38.7138C50.3709 37.6991 50.5829 37.5587 52.3083 37.4342C53.6275 37.3385 54.2456 37.0841 54.2456 36.6365C54.2456 35.7211 49.3111 35.697 48.9605 36.6105ZM54.7014 38.1668C54.7014 39.3702 54.9476 40.601 55.2485 40.9018C55.5493 41.2027 56.7801 41.4488 57.9835 41.4488H60.1716V38.7138C60.1716 36.5863 60.0198 35.9787 59.4878 35.9787C58.9814 35.9787 58.8041 36.5107 58.8041 38.03C58.8041 39.8899 58.7019 40.0813 57.7132 40.0813C56.5134 40.0813 56.069 39.3314 56.069 37.3089C56.069 36.4304 55.837 35.9787 55.3852 35.9787C54.8724 35.9787 54.7014 36.5257 54.7014 38.1668ZM61.0833 40.2864C61.0833 43.8521 61.2068 44.6398 61.767 44.6398C62.2425 44.6398 62.4508 44.1616 62.4508 43.0703C62.4508 41.5514 62.5124 41.4967 64.3795 41.3609C66.016 41.2423 66.3752 41.0308 66.7467 39.9673C67.0275 39.1646 67.0275 38.2629 66.7462 37.4602C66.3456 36.3151 66.0816 36.1948 63.6953 36.0699L61.0833 35.9331V40.2864ZM67.9488 36.6287C67.652 36.9861 67.4733 38.1658 67.5513 39.2498L67.693 41.2209L70.0862 41.3586C71.9652 41.4671 72.4794 41.3504 72.4794 40.8166C72.4794 40.3662 71.9014 40.0758 70.77 39.9573L69.0606 39.7786L70.9979 39.702C72.7976 39.6309 72.9353 39.5347 72.9353 38.3491C72.9353 37.6471 72.6891 36.8266 72.3882 36.5257C71.6306 35.7681 68.6047 35.8388 67.9488 36.6287ZM74.0995 36.5485C74.0033 36.8621 73.8082 38.0929 73.6664 39.2836C73.4353 41.2246 73.5019 41.4488 74.3115 41.4488C75.0645 41.4488 75.2145 41.1389 75.2145 39.5826C75.2145 38.1002 75.4018 37.6676 76.1262 37.4784C76.6276 37.3471 77.0379 36.956 77.0379 36.6091C77.0379 35.8059 74.3443 35.7503 74.0995 36.5485ZM77.4937 38.7138C77.4937 41.1448 77.5949 41.4488 78.4054 41.4488C79.2159 41.4488 79.3171 41.1448 79.3171 38.7138C79.3171 36.2827 79.2159 35.9787 78.4054 35.9787C77.5949 35.9787 77.4937 36.2827 77.4937 38.7138ZM45.6985 37.648C45.3853 37.7747 44.8725 37.7747 44.5589 37.648C44.2457 37.5217 44.5019 37.4183 45.1287 37.4183C45.7555 37.4183 46.0121 37.5217 45.6985 37.648ZM64.958 38.7138C64.958 39.6182 64.699 39.883 63.7044 39.9974C62.573 40.1278 62.4508 40.0029 62.4508 38.7138C62.4508 37.4246 62.573 37.2997 63.7044 37.4301C64.699 37.5445 64.958 37.8094 64.958 38.7138ZM70.77 37.648C70.4568 37.7747 69.944 37.7747 69.6304 37.648C69.3172 37.5217 69.5734 37.4183 70.2002 37.4183C70.827 37.4183 71.0836 37.5217 70.77 37.648Z" fill="#98989A"/>
<path fill-rule="evenodd" clip-rule="evenodd" d="M108.07 0.903223C104.633 1.80306 98.0068 4.79523 98.0068 5.44709C98.0068 5.64356 99.4518 5.19729 101.218 4.45517C113.015 -0.501693 125.224 1.57149 133.602 9.95403C139.206 15.5614 141.617 21.723 141.2 29.3689C140.785 36.9756 137.795 43.5539 132.032 49.5401C130.282 51.3576 129.02 52.845 129.228 52.845C129.435 52.845 130.703 52.0158 132.046 51.0025C137.121 47.1702 141.669 40.2194 143.367 33.6995C144.39 29.7705 144.393 22.8194 143.372 19.2856C140.721 10.1072 133.105 2.82826 123.878 0.652507C119.792 -0.310694 112.25 -0.191262 108.07 0.903223ZM110.014 3.17196C100.417 4.8946 92.0406 12.6773 89.5686 22.168C88.7914 25.1524 88.6902 32.0425 89.3794 35.067C89.9666 37.643 92.5248 43.2722 93.1087 43.2722C93.3549 43.2722 93.3922 42.924 93.1944 42.4745C90.2998 35.9026 89.735 29.6456 91.5173 23.8988C94.9462 12.8464 104.868 5.43706 116.241 5.43706C122.541 5.43706 128.722 7.87492 133.723 12.3322C137.308 15.5272 136.951 14.2604 133.221 10.5498C129.962 7.30785 126.283 5.08515 122.181 3.87989C119.06 2.96319 113.107 2.61674 110.014 3.17196ZM109.717 7.03343C105.829 8.10193 102.421 10.1268 99.2603 13.2466C86.3772 25.9615 91.9417 47.8507 109.372 53.0218C112.612 53.9832 119.393 53.9869 122.653 53.0296C125.408 52.2205 130.372 49.7311 130.372 49.1586C130.372 48.9562 129.023 49.4216 127.375 50.1929C122.911 52.2816 118.539 52.7862 113.64 51.7778C106.805 50.3706 101.93 47.172 98.4421 41.8039C96.7286 39.1664 94.9562 33.8608 95.4093 32.7231C95.5447 32.3825 95.6719 32.6442 95.6915 33.3047C95.7111 33.9652 96.5512 36.151 97.5577 38.1627C103.171 49.3769 117.444 54.2449 128.934 48.8641C132.216 47.3274 136.086 43.3711 137.716 39.8867C143.915 26.6403 136.402 10.8156 122.107 7.01109C119.098 6.21017 112.669 6.22157 109.717 7.03343ZM124.059 9.38286C129.484 11.9493 132.617 16.2242 133.652 22.4725C134.909 30.0545 130.652 38.6577 124.627 40.7104C120.423 42.1431 119.641 40.3047 121.47 33.2892C123.587 25.1697 123.728 23.9895 122.812 22.0586C121.128 18.5103 117.798 17.8898 113.508 20.3245C112.115 21.1159 110.284 21.626 107.816 21.9118C105.814 22.1429 103.997 22.513 103.775 22.7341C102.814 23.6955 104.167 24.1267 108.147 24.1267C111.781 24.1267 112.439 24.2512 113.355 25.1109C114.124 25.8329 114.95 26.0864 116.461 26.0636C117.641 26.0458 118.52 26.2409 118.52 26.5208C118.52 27.5478 116.114 31.0387 112.581 35.1368C110.562 37.4803 108.789 39.9605 108.643 40.6484L108.378 41.8997L106.554 40.8763C103.858 39.3643 100.503 35.4513 99.3223 32.4445C98.5095 30.3741 98.288 28.8689 98.2643 25.2663C98.2383 21.2572 98.3796 20.3993 99.4358 18.146C102.611 11.3749 109.097 7.6005 117.152 7.83572C120.409 7.93053 121.51 8.17715 124.059 9.38286ZM63.8183 9.36827C59.853 10.1122 58.6395 11.6548 58.6021 16.0017C58.5816 18.4054 58.7767 19.3153 59.5316 20.3323C61.0445 22.3699 62.2616 22.7451 67.3812 22.7523C72.36 22.7596 73.8469 23.1731 73.8469 24.5497C73.8469 25.7226 72.989 25.9501 68.5715 25.9501C65.2315 25.9501 64.6644 25.8325 64.1684 25.0384C63.7048 24.2958 63.1054 24.1267 60.9374 24.1267H58.2757L58.5848 25.6082C58.9896 27.5492 59.8994 28.9418 61.4115 29.9324C62.4317 30.6011 63.6793 30.736 68.8126 30.7342C76.9841 30.7315 78.4177 30.0235 79.1179 25.6461C79.5578 22.8932 78.6288 20.1467 76.9007 19.0933C75.6927 18.3566 74.5964 18.2039 70.512 18.2026C65.1494 18.2007 63.8183 17.8073 63.8183 16.2246C63.8183 14.4715 64.668 14.0981 68.6585 14.0981C73.0009 14.0981 73.8469 14.3292 73.8469 15.5144C73.8469 16.267 74.2034 16.3773 76.6326 16.3773H79.4187L79.106 14.6679C78.3306 10.4249 76.6071 9.39745 70.0343 9.26069C67.2422 9.20234 64.4451 9.25066 63.8183 9.36827ZM0 20.2288V30.9644H2.27923H4.55845V22.7592V14.554H7.29353H10.0286V22.7592V30.9644H12.5357H15.0429V22.7592V14.554H17.0609C18.6983 14.554 19.2576 14.7805 20.0239 15.7551C20.8868 16.8519 20.9689 17.5648 20.9689 23.9603V30.9644H23.513H26.057L25.9061 22.8731C25.7407 14.0001 25.417 12.7944 22.6459 10.7271C21.4389 9.82594 20.71 9.75939 10.68 9.63038L0 9.49272V20.2288ZM31.4533 25.6939V41.9047H33.9605H36.4676V36.2426V30.581L42.3622 30.4306C48.7559 30.2679 49.5978 29.972 51.7102 27.1421C52.5453 26.0235 52.6501 25.2308 52.6501 20.0241C52.6501 13.6359 52.3876 12.8559 49.513 10.7075C48.3684 9.85192 47.5032 9.75483 39.8546 9.62537L31.4533 9.48314V25.6939ZM46.8253 15.6767C47.8469 16.8646 47.9394 17.3073 47.789 20.2903C47.5428 25.1619 47.1207 25.4943 41.1833 25.4943H36.4676V19.7433V13.9919L41.0812 14.1774C45.4979 14.3548 45.7432 14.419 46.8253 15.6767Z" fill="#3072F2"/>
<path fill-rule="evenodd" clip-rule="evenodd" d="M108.07 0.903223C104.633 1.80306 98.0068 4.79523 98.0068 5.44709C98.0068 5.64356 99.4518 5.19729 101.218 4.45517C113.015 -0.501693 125.224 1.57149 133.602 9.95403C139.206 15.5614 141.617 21.723 141.2 29.3689C140.785 36.9756 137.795 43.5539 132.032 49.5401C130.282 51.3576 129.02 52.845 129.228 52.845C129.435 52.845 130.703 52.0158 132.046 51.0025C137.121 47.1702 141.669 40.2194 143.367 33.6995C144.39 29.7705 144.393 22.8194 143.372 19.2856C140.721 10.1072 133.105 2.82826 123.878 0.652507C119.792 -0.310694 112.25 -0.191262 108.07 0.903223ZM110.014 3.17196C100.417 4.8946 92.0406 12.6773 89.5686 22.168C88.7914 25.1524 88.6902 32.0425 89.3794 35.067C89.9666 37.643 92.5248 43.2722 93.1087 43.2722C93.3549 43.2722 93.3922 42.924 93.1944 42.4745C90.2998 35.9026 89.735 29.6456 91.5173 23.8988C94.9462 12.8464 104.868 5.43706 116.241 5.43706C122.541 5.43706 128.722 7.87492 133.723 12.3322C137.308 15.5272 136.951 14.2604 133.221 10.5498C129.962 7.30785 126.283 5.08515 122.181 3.87989C119.06 2.96319 113.107 2.61674 110.014 3.17196ZM109.717 7.03343C105.829 8.10193 102.421 10.1268 99.2603 13.2466C86.3772 25.9615 91.9417 47.8507 109.372 53.0218C112.612 53.9832 119.393 53.9869 122.653 53.0296C125.408 52.2205 130.372 49.7311 130.372 49.1586C130.372 48.9562 129.023 49.4216 127.375 50.1929C122.911 52.2816 118.539 52.7862 113.64 51.7778C106.805 50.3706 101.93 47.172 98.4421 41.8039C96.7286 39.1664 94.9562 33.8608 95.4093 32.7231C95.5447 32.3825 95.6719 32.6442 95.6915 33.3047C95.7111 33.9652 96.5512 36.151 97.5577 38.1627C103.171 49.3769 117.444 54.2449 128.934 48.8641C132.216 47.3274 136.086 43.3711 137.716 39.8867C143.915 26.6403 136.402 10.8156 122.107 7.01109C119.098 6.21017 112.669 6.22157 109.717 7.03343ZM124.059 9.38286C129.438 11.9274 132.546 16.1257 133.637 22.3202C134.971 29.8927 130.682 38.6472 124.627 40.7104C120.425 42.1422 119.643 40.306 121.465 33.2892C124.02 23.4589 124.004 22.7902 121.168 20.2279C119.478 18.7012 119.158 18.5836 117.438 18.8585C116.403 19.024 114.657 19.6868 113.558 20.3309C112.178 21.1396 110.414 21.6383 107.86 21.9414C105.825 22.183 103.984 22.5504 103.767 22.7583C102.801 23.685 104.193 24.1267 108.081 24.1267C111.59 24.1267 112.37 24.2708 113.538 25.1346C114.471 25.8238 115.474 26.1197 116.711 26.0704C117.775 26.0281 118.52 26.2067 118.52 26.504C118.52 27.5474 116.135 31.0141 112.581 35.1368C110.562 37.4803 108.789 39.9605 108.643 40.6484L108.378 41.8997L106.554 40.8763C103.858 39.3643 100.503 35.4513 99.3223 32.4445C98.5095 30.3741 98.288 28.8689 98.2643 25.2663C98.2383 21.2572 98.3796 20.3993 99.4358 18.146C102.611 11.3749 109.097 7.6005 117.152 7.83572C120.409 7.93053 121.51 8.17715 124.059 9.38286ZM63.8183 9.36827C59.853 10.1122 58.6395 11.6548 58.6021 16.0017C58.5816 18.4054 58.7767 19.3153 59.5316 20.3323C61.0445 22.3699 62.2616 22.7451 67.3812 22.7523C72.36 22.7596 73.8469 23.1731 73.8469 24.5497C73.8469 25.7226 72.989 25.9501 68.5715 25.9501C65.2315 25.9501 64.6644 25.8325 64.1684 25.0384C63.7048 24.2958 63.1054 24.1267 60.9374 24.1267H58.2757L58.5848 25.6082C58.9896 27.5492 59.8994 28.9418 61.4115 29.9324C62.4317 30.6011 63.6793 30.736 68.8126 30.7342C76.9841 30.7315 78.4177 30.0235 79.1179 25.6461C79.5578 22.8932 78.6288 20.1467 76.9007 19.0933C75.6927 18.3566 74.5964 18.2039 70.512 18.2026C65.1494 18.2007 63.8183 17.8073 63.8183 16.2246C63.8183 14.4715 64.668 14.0981 68.6585 14.0981C73.0009 14.0981 73.8469 14.3292 73.8469 15.5144C73.8469 16.267 74.2034 16.3773 76.6326 16.3773H79.4187L79.106 14.6679C78.3306 10.4249 76.6071 9.39745 70.0343 9.26069C67.2422 9.20234 64.4451 9.25066 63.8183 9.36827ZM0 20.2288V30.9644H2.27923H4.55845V22.7592V14.554H7.29353H10.0286V22.7592V30.9644H12.5357H15.0429V22.7592V14.554H17.0609C18.6983 14.554 19.2576 14.7805 20.0239 15.7551C20.8868 16.8519 20.9689 17.5648 20.9689 23.9603V30.9644H23.513H26.057L25.9061 22.8731C25.7407 14.0001 25.417 12.7944 22.6459 10.7271C21.4389 9.82594 20.71 9.75939 10.68 9.63038L0 9.49272V20.2288ZM31.4533 25.6939V41.9047H33.9605H36.4676V36.2426V30.581L42.3622 30.4306C48.7559 30.2679 49.5978 29.972 51.7102 27.1421C52.5453 26.0235 52.6501 25.2308 52.6501 20.0241C52.6501 13.6359 52.3876 12.8559 49.513 10.7075C48.3684 9.85192 47.5032 9.75483 39.8546 9.62537L31.4533 9.48314V25.6939ZM46.8253 15.6767C47.8469 16.8646 47.9394 17.3073 47.789 20.2903C47.5428 25.1619 47.1207 25.4943 41.1833 25.4943H36.4676V19.7433V13.9919L41.0812 14.1774C45.4979 14.3548 45.7432 14.419 46.8253 15.6767Z" fill="#3072F2"/>
<path fill-rule="evenodd" clip-rule="evenodd" d="M108.07 0.903223C104.633 1.80306 98.0068 4.79523 98.0068 5.44709C98.0068 5.64356 99.4518 5.19729 101.218 4.45517C113.015 -0.501693 125.224 1.57149 133.602 9.95403C139.206 15.5614 141.617 21.723 141.2 29.3689C140.785 36.9756 137.795 43.5539 132.032 49.5401C130.282 51.3576 129.02 52.845 129.228 52.845C129.435 52.845 130.703 52.0158 132.046 51.0025C137.121 47.1702 141.669 40.2194 143.367 33.6995C144.39 29.7705 144.393 22.8194 143.372 19.2856C140.721 10.1072 133.105 2.82826 123.878 0.652507C119.792 -0.310694 112.25 -0.191262 108.07 0.903223ZM110.014 3.17196C100.417 4.8946 92.0406 12.6773 89.5686 22.168C88.7914 25.1524 88.6902 32.0425 89.3794 35.067C89.9666 37.643 92.5248 43.2722 93.1087 43.2722C93.3549 43.2722 93.3922 42.924 93.1944 42.4745C90.2998 35.9026 89.735 29.6456 91.5173 23.8988C94.9462 12.8464 104.868 5.43706 116.241 5.43706C122.541 5.43706 128.722 7.87492 133.723 12.3322C137.308 15.5272 136.951 14.2604 133.221 10.5498C129.962 7.30785 126.283 5.08515 122.181 3.87989C119.06 2.96319 113.107 2.61674 110.014 3.17196ZM109.717 7.03343C105.829 8.10193 102.421 10.1268 99.2603 13.2466C86.3772 25.9615 91.9417 47.8507 109.372 53.0218C112.612 53.9832 119.393 53.9869 122.653 53.0296C125.408 52.2205 130.372 49.7311 130.372 49.1586C130.372 48.9562 129.023 49.4216 127.375 50.1929C122.911 52.2816 118.539 52.7862 113.64 51.7778C106.805 50.3706 101.93 47.172 98.4421 41.8039C96.7286 39.1664 94.9562 33.8608 95.4093 32.7231C95.5447 32.3825 95.6719 32.6442 95.6915 33.3047C95.7111 33.9652 96.5512 36.151 97.5577 38.1627C103.171 49.3769 117.444 54.2449 128.934 48.8641C132.216 47.3274 136.086 43.3711 137.716 39.8867C143.915 26.6403 136.402 10.8156 122.107 7.01109C119.098 6.21017 112.669 6.22157 109.717 7.03343ZM124.059 9.38286C129.438 11.9274 132.546 16.1257 133.637 22.3202C134.61 27.8414 132.63 34.2606 128.811 37.9726C126.441 40.2764 123.038 41.7037 121.666 40.9693C120.157 40.1615 120.154 38.4394 121.65 32.3693C123.504 24.8447 123.509 23.0327 121.677 20.8118C120.454 19.3276 120.027 19.1124 118.305 19.1124C117.013 19.1124 115.471 19.566 113.831 20.4284C112.143 21.3169 110.3 21.848 108.166 22.0622C102.109 22.6708 102.605 24.108 108.875 24.1199C111.981 24.1254 112.891 24.294 113.837 25.0384C114.542 25.5927 115.686 25.9501 116.758 25.9501C117.792 25.9501 118.52 26.1689 118.52 26.4798C118.52 27.5465 116.165 30.9794 112.581 35.1368C110.562 37.4803 108.789 39.9605 108.643 40.6484L108.378 41.8997L106.554 40.8763C103.858 39.3643 100.503 35.4513 99.3223 32.4445C98.5095 30.3741 98.288 28.8689 98.2643 25.2663C98.2383 21.2572 98.3796 20.3993 99.4358 18.146C102.611 11.3749 109.097 7.6005 117.152 7.83572C120.409 7.93053 121.51 8.17715 124.059 9.38286ZM63.8183 9.36827C59.853 10.1122 58.6395 11.6548 58.6021 16.0017C58.5816 18.4054 58.7767 19.3153 59.5316 20.3323C61.0445 22.3699 62.2616 22.7451 67.3812 22.7523C72.36 22.7596 73.8469 23.1731 73.8469 24.5497C73.8469 25.7226 72.989 25.9501 68.5715 25.9501C65.2315 25.9501 64.6644 25.8325 64.1684 25.0384C63.7048 24.2958 63.1054 24.1267 60.9374 24.1267H58.2757L58.5848 25.6082C58.9896 27.5492 59.8994 28.9418 61.4115 29.9324C62.4317 30.6011 63.6793 30.736 68.8126 30.7342C76.9841 30.7315 78.4177 30.0235 79.1179 25.6461C79.5578 22.8932 78.6288 20.1467 76.9007 19.0933C75.6927 18.3566 74.5964 18.2039 70.512 18.2026C65.1494 18.2007 63.8183 17.8073 63.8183 16.2246C63.8183 14.4715 64.668 14.0981 68.6585 14.0981C73.0009 14.0981 73.8469 14.3292 73.8469 15.5144C73.8469 16.267 74.2034 16.3773 76.6326 16.3773H79.4187L79.106 14.6679C78.3306 10.4249 76.6071 9.39745 70.0343 9.26069C67.2422 9.20234 64.4451 9.25066 63.8183 9.36827ZM0 20.2288V30.9644H2.27923H4.55845V22.7592V14.554H7.29353H10.0286V22.7592V30.9644H12.5357H15.0429V22.7592V14.554H17.0609C18.6983 14.554 19.2576 14.7805 20.0239 15.7551C20.8868 16.8519 20.9689 17.5648 20.9689 23.9603V30.9644H23.513H26.057L25.9061 22.8731C25.7407 14.0001 25.417 12.7944 22.6459 10.7271C21.4389 9.82594 20.71 9.75939 10.68 9.63038L0 9.49272V20.2288ZM31.4533 25.6939V41.9047H33.9605H36.4676V36.2426V30.581L42.3622 30.4306C48.7559 30.2679 49.5978 29.972 51.7102 27.1421C52.5453 26.0235 52.6501 25.2308 52.6501 20.0241C52.6501 13.6359 52.3876 12.8559 49.513 10.7075C48.3684 9.85192 47.5032 9.75483 39.8546 9.62537L31.4533 9.48314V25.6939ZM46.8253 15.6767C47.8469 16.8646 47.9394 17.3073 47.789 20.2903C47.5428 25.1619 47.1207 25.4943 41.1833 25.4943H36.4676V19.7433V13.9919L41.0812 14.1774C45.4979 14.3548 45.7432 14.419 46.8253 15.6767Z" fill="#3072F2"/>
<path fill-rule="evenodd" clip-rule="evenodd" d="M108.07 0.903223C104.633 1.80306 98.0068 4.79523 98.0068 5.44709C98.0068 5.64356 99.4518 5.19729 101.218 4.45517C113.015 -0.501693 125.224 1.57149 133.602 9.95403C139.206 15.5614 141.617 21.723 141.2 29.3689C140.785 36.9756 137.795 43.5539 132.032 49.5401C130.282 51.3576 129.02 52.845 129.228 52.845C129.435 52.845 130.703 52.0158 132.046 51.0025C137.121 47.1702 141.669 40.2194 143.367 33.6995C144.39 29.7705 144.393 22.8194 143.372 19.2856C140.721 10.1072 133.105 2.82826 123.878 0.652507C119.792 -0.310694 112.25 -0.191262 108.07 0.903223ZM110.014 3.17196C100.417 4.8946 92.0406 12.6773 89.5686 22.168C88.7914 25.1524 88.6902 32.0425 89.3794 35.067C89.9666 37.643 92.5248 43.2722 93.1087 43.2722C93.3549 43.2722 93.3922 42.924 93.1944 42.4745C90.2998 35.9026 89.735 29.6456 91.5173 23.8988C94.9462 12.8464 104.868 5.43706 116.241 5.43706C122.541 5.43706 128.722 7.87492 133.723 12.3322C137.308 15.5272 136.951 14.2604 133.221 10.5498C129.962 7.30785 126.283 5.08515 122.181 3.87989C119.06 2.96319 113.107 2.61674 110.014 3.17196ZM109.717 7.03343C105.829 8.10193 102.421 10.1268 99.2603 13.2466C86.3772 25.9615 91.9417 47.8507 109.372 53.0218C112.612 53.9832 119.393 53.9869 122.653 53.0296C125.408 52.2205 130.372 49.7311 130.372 49.1586C130.372 48.9562 129.023 49.4216 127.375 50.1929C122.911 52.2816 118.539 52.7862 113.64 51.7778C106.805 50.3706 101.93 47.172 98.4421 41.8039C96.7286 39.1664 94.9562 33.8608 95.4093 32.7231C95.5447 32.3825 95.6719 32.6442 95.6915 33.3047C95.7111 33.9652 96.5512 36.151 97.5577 38.1627C103.171 49.3769 117.444 54.2449 128.934 48.8641C132.216 47.3274 136.086 43.3711 137.716 39.8867C143.915 26.6403 136.402 10.8156 122.107 7.01109C119.098 6.21017 112.669 6.22157 109.717 7.03343ZM124.059 9.38286C129.484 11.9493 132.617 16.2242 133.652 22.4725C134.909 30.0545 130.652 38.6577 124.627 40.7104C120.421 42.1436 119.689 40.3831 121.464 33.0918C123.154 26.147 123.368 23.7306 122.452 21.9592C120.798 18.7601 117.925 18.2819 113.749 20.5105C111.863 21.517 110.26 21.9815 108.026 22.1689C102.12 22.6639 102.492 23.8218 108.633 24.062C111.86 24.1883 113.051 24.4203 113.9 25.0876C114.6 25.6388 115.725 25.9501 117.014 25.9501H119.033L117.794 28.2257C117.113 29.4774 114.836 32.5029 112.734 34.9494C110.632 37.3959 108.792 39.9605 108.645 40.6484L108.378 41.8997L106.554 40.8763C103.858 39.3643 100.503 35.4513 99.3223 32.4445C98.5095 30.3741 98.288 28.8689 98.2643 25.2663C98.2383 21.2572 98.3796 20.3993 99.4358 18.146C102.611 11.3749 109.097 7.6005 117.152 7.83572C120.409 7.93053 121.51 8.17715 124.059 9.38286ZM63.8183 9.36827C59.853 10.1122 58.6395 11.6548 58.6021 16.0017C58.5816 18.4054 58.7767 19.3153 59.5316 20.3323C61.0445 22.3699 62.2616 22.7451 67.3812 22.7523C72.36 22.7596 73.8469 23.1731 73.8469 24.5497C73.8469 25.7226 72.989 25.9501 68.5715 25.9501C65.2315 25.9501 64.6644 25.8325 64.1684 25.0384C63.7048 24.2958 63.1054 24.1267 60.9374 24.1267H58.2757L58.5848 25.6082C58.9896 27.5492 59.8994 28.9418 61.4115 29.9324C62.4317 30.6011 63.6793 30.736 68.8126 30.7342C76.9841 30.7315 78.4177 30.0235 79.1179 25.6461C79.5578 22.8932 78.6288 20.1467 76.9007 19.0933C75.6927 18.3566 74.5964 18.2039 70.512 18.2026C65.1494 18.2007 63.8183 17.8073 63.8183 16.2246C63.8183 14.4715 64.668 14.0981 68.6585 14.0981C73.0009 14.0981 73.8469 14.3292 73.8469 15.5144C73.8469 16.267 74.2034 16.3773 76.6326 16.3773H79.4187L79.106 14.6679C78.3306 10.4249 76.6071 9.39745 70.0343 9.26069C67.2422 9.20234 64.4451 9.25066 63.8183 9.36827ZM0 20.2288V30.9644H2.27923H4.55845V22.7592V14.554H7.29353H10.0286V22.7592V30.9644H12.5357H15.0429V22.7592V14.554H17.0609C18.6983 14.554 19.2576 14.7805 20.0239 15.7551C20.8868 16.8519 20.9689 17.5648 20.9689 23.9603V30.9644H23.513H26.057L25.9061 22.8731C25.7407 14.0001 25.417 12.7944 22.6459 10.7271C21.4389 9.82594 20.71 9.75939 10.68 9.63038L0 9.49272V20.2288ZM31.4533 25.6939V41.9047H33.9605H36.4676V36.2426V30.581L42.3622 30.4306C48.7559 30.2679 49.5978 29.972 51.7102 27.1421C52.5453 26.0235 52.6501 25.2308 52.6501 20.0241C52.6501 13.6359 52.3876 12.8559 49.513 10.7075C48.3684 9.85192 47.5032 9.75483 39.8546 9.62537L31.4533 9.48314V25.6939ZM46.8253 15.6767C47.8469 16.8646 47.9394 17.3073 47.789 20.2903C47.5428 25.1619 47.1207 25.4943 41.1833 25.4943H36.4676V19.7433V13.9919L41.0812 14.1774C45.4979 14.3548 45.7432 14.419 46.8253 15.6767Z" fill="#3072F2"/>
<path fill-rule="evenodd" clip-rule="evenodd" d="M108.07 0.903223C104.633 1.80306 98.0068 4.79523 98.0068 5.44709C98.0068 5.64356 99.4518 5.19729 101.218 4.45517C113.015 -0.501693 125.224 1.57149 133.602 9.95403C139.206 15.5614 141.617 21.723 141.2 29.3689C140.785 36.9756 137.795 43.5539 132.032 49.5401C130.282 51.3576 129.02 52.845 129.228 52.845C129.435 52.845 130.703 52.0158 132.046 51.0025C137.121 47.1702 141.669 40.2194 143.367 33.6995C144.39 29.7705 144.393 22.8194 143.372 19.2856C140.721 10.1072 133.105 2.82826 123.878 0.652507C119.792 -0.310694 112.25 -0.191262 108.07 0.903223ZM110.014 3.17196C100.417 4.8946 92.0406 12.6773 89.5686 22.168C88.7914 25.1524 88.6902 32.0425 89.3794 35.067C89.9666 37.643 92.5248 43.2722 93.1087 43.2722C93.3549 43.2722 93.3922 42.924 93.1944 42.4745C90.2998 35.9026 89.735 29.6456 91.5173 23.8988C94.9462 12.8464 104.868 5.43706 116.241 5.43706C122.541 5.43706 128.722 7.87492 133.723 12.3322C137.308 15.5272 136.951 14.2604 133.221 10.5498C129.962 7.30785 126.283 5.08515 122.181 3.87989C119.06 2.96319 113.107 2.61674 110.014 3.17196ZM109.717 7.03343C105.829 8.10193 102.421 10.1268 99.2603 13.2466C86.3772 25.9615 91.9417 47.8507 109.372 53.0218C112.612 53.9832 119.393 53.9869 122.653 53.0296C125.408 52.2205 130.372 49.7311 130.372 49.1586C130.372 48.9562 129.023 49.4216 127.375 50.1929C122.911 52.2816 118.539 52.7862 113.64 51.7778C106.805 50.3706 101.93 47.172 98.4421 41.8039C96.7286 39.1664 94.9562 33.8608 95.4093 32.7231C95.5447 32.3825 95.6719 32.6442 95.6915 33.3047C95.7111 33.9652 96.5512 36.151 97.5577 38.1627C103.171 49.3769 117.444 54.2449 128.934 48.8641C132.216 47.3274 136.086 43.3711 137.716 39.8867C143.915 26.6403 136.402 10.8156 122.107 7.01109C119.098 6.21017 112.669 6.22157 109.717 7.03343ZM124.059 9.38286C129.438 11.9274 132.546 16.1257 133.637 22.3202C134.61 27.8414 132.63 34.2606 128.811 37.9726C126.441 40.2764 123.038 41.7037 121.666 40.9693C120.069 40.1141 120.129 38.1722 121.986 30.7365C123.479 24.7544 123.385 23.1015 121.43 20.9372C119.368 18.6552 117.885 18.5659 114.14 20.4977C112.237 21.4792 110.418 21.9943 107.9 22.266C102.074 22.8937 102.381 23.6773 108.585 24.0114C111.56 24.1719 113.07 24.4572 113.655 24.9696C114.128 25.3844 115.353 25.7158 116.492 25.7372C117.594 25.7577 118.616 25.8945 118.762 26.0408C119.228 26.5062 116.241 30.8924 112.515 35.2142C110.532 37.5149 108.789 39.9605 108.643 40.6484L108.378 41.8997L106.554 40.8763C103.858 39.3643 100.503 35.4513 99.3223 32.4445C98.5095 30.3741 98.288 28.8689 98.2643 25.2663C98.2383 21.2572 98.3796 20.3993 99.4358 18.146C102.611 11.3749 109.097 7.6005 117.152 7.83572C120.409 7.93053 121.51 8.17715 124.059 9.38286ZM63.8183 9.36827C59.853 10.1122 58.6395 11.6548 58.6021 16.0017C58.5816 18.4054 58.7767 19.3153 59.5316 20.3323C61.0445 22.3699 62.2616 22.7451 67.3812 22.7523C72.36 22.7596 73.8469 23.1731 73.8469 24.5497C73.8469 25.7226 72.989 25.9501 68.5715 25.9501C65.2315 25.9501 64.6644 25.8325 64.1684 25.0384C63.7048 24.2958 63.1054 24.1267 60.9374 24.1267H58.2757L58.5848 25.6082C58.9896 27.5492 59.8994 28.9418 61.4115 29.9324C62.4317 30.6011 63.6793 30.736 68.8126 30.7342C76.9841 30.7315 78.4177 30.0235 79.1179 25.6461C79.5578 22.8932 78.6288 20.1467 76.9007 19.0933C75.6927 18.3566 74.5964 18.2039 70.512 18.2026C65.1494 18.2007 63.8183 17.8073 63.8183 16.2246C63.8183 14.4715 64.668 14.0981 68.6585 14.0981C73.0009 14.0981 73.8469 14.3292 73.8469 15.5144C73.8469 16.267 74.2034 16.3773 76.6326 16.3773H79.4187L79.106 14.6679C78.3306 10.4249 76.6071 9.39745 70.0343 9.26069C67.2422 9.20234 64.4451 9.25066 63.8183 9.36827ZM0 20.2288V30.9644H2.27923H4.55845V22.7592V14.554H7.29353H10.0286V22.7592V30.9644H12.5357H15.0429V22.7592V14.554H17.0609C18.6983 14.554 19.2576 14.7805 20.0239 15.7551C20.8868 16.8519 20.9689 17.5648 20.9689 23.9603V30.9644H23.513H26.057L25.9061 22.8731C25.7407 14.0001 25.417 12.7944 22.6459 10.7271C21.4389 9.82594 20.71 9.75939 10.68 9.63038L0 9.49272V20.2288ZM31.4533 25.6939V41.9047H33.9605H36.4676V36.2426V30.581L42.3622 30.4306C48.7559 30.2679 49.5978 29.972 51.7102 27.1421C52.5453 26.0235 52.6501 25.2308 52.6501 20.0241C52.6501 13.6359 52.3876 12.8559 49.513 10.7075C48.3684 9.85192 47.5032 9.75483 39.8546 9.62537L31.4533 9.48314V25.6939ZM46.8253 15.6767C47.8469 16.8646 47.9394 17.3073 47.789 20.2903C47.5428 25.1619 47.1207 25.4943 41.1833 25.4943H36.4676V19.7433V13.9919L41.0812 14.1774C45.4979 14.3548 45.7432 14.419 46.8253 15.6767Z" fill="#3072F2"/>
<path fill-rule="evenodd" clip-rule="evenodd" d="M108.07 0.903223C104.633 1.80306 98.0068 4.79523 98.0068 5.44709C98.0068 5.64356 99.4518 5.19729 101.218 4.45517C113.015 -0.501693 125.224 1.57149 133.602 9.95403C139.206 15.5614 141.617 21.723 141.2 29.3689C140.785 36.9756 137.795 43.5539 132.032 49.5401C130.282 51.3576 129.02 52.845 129.228 52.845C129.435 52.845 130.703 52.0158 132.046 51.0025C137.121 47.1702 141.669 40.2194 143.367 33.6995C144.39 29.7705 144.393 22.8194 143.372 19.2856C140.721 10.1072 133.105 2.82826 123.878 0.652507C119.792 -0.310694 112.25 -0.191262 108.07 0.903223ZM110.014 3.17196C100.417 4.8946 92.0406 12.6773 89.5686 22.168C88.7914 25.1524 88.6902 32.0425 89.3794 35.067C89.9666 37.643 92.5248 43.2722 93.1087 43.2722C93.3549 43.2722 93.3922 42.924 93.1944 42.4745C90.2998 35.9026 89.735 29.6456 91.5173 23.8988C94.9462 12.8464 104.868 5.43706 116.241 5.43706C122.541 5.43706 128.722 7.87492 133.723 12.3322C137.308 15.5272 136.951 14.2604 133.221 10.5498C129.962 7.30785 126.283 5.08515 122.181 3.87989C119.06 2.96319 113.107 2.61674 110.014 3.17196ZM109.717 7.03343C105.829 8.10193 102.421 10.1268 99.2603 13.2466C86.3772 25.9615 91.9417 47.8507 109.372 53.0218C112.612 53.9832 119.393 53.9869 122.653 53.0296C125.408 52.2205 130.372 49.7311 130.372 49.1586C130.372 48.9562 129.023 49.4216 127.375 50.1929C122.911 52.2816 118.539 52.7862 113.64 51.7778C106.805 50.3706 101.93 47.172 98.4421 41.8039C96.7286 39.1664 94.9562 33.8608 95.4093 32.7231C95.5447 32.3825 95.6719 32.6442 95.6915 33.3047C95.7111 33.9652 96.5512 36.151 97.5577 38.1627C103.171 49.3769 117.444 54.2449 128.934 48.8641C132.216 47.3274 136.086 43.3711 137.716 39.8867C143.915 26.6403 136.402 10.8156 122.107 7.01109C119.098 6.21017 112.669 6.22157 109.717 7.03343ZM124.059 9.38286C129.438 11.9274 132.546 16.1257 133.637 22.3202C134.971 29.8927 130.682 38.6472 124.627 40.7104C120.749 42.0319 119.767 40.3881 121.055 34.7329C121.498 32.7855 121.911 30.8846 121.972 30.5086C122.033 30.1325 122.33 28.5375 122.632 26.9644C123.277 23.597 122.828 22.0289 120.705 20.2429C118.933 18.7523 117.351 18.817 114.128 20.5123C112.233 21.5088 110.429 22.0303 107.864 22.3229C105.883 22.5486 104.154 22.8421 104.022 22.9743C103.468 23.5277 104.555 23.7798 108.35 23.9795C111.201 24.1295 112.872 24.4599 114.112 25.12C115.262 25.7327 116.305 25.9601 117.171 25.7869C117.893 25.6424 118.6 25.7112 118.741 25.9396C119.154 26.6074 116.406 30.7014 112.515 35.2142C110.532 37.5149 108.789 39.9605 108.643 40.6484L108.378 41.8997L106.554 40.8763C103.858 39.3643 100.503 35.4513 99.3223 32.4445C98.5095 30.3741 98.288 28.8689 98.2643 25.2663C98.2383 21.2572 98.3796 20.3993 99.4358 18.146C102.611 11.3749 109.097 7.6005 117.152 7.83572C120.409 7.93053 121.51 8.17715 124.059 9.38286ZM63.8183 9.36827C59.853 10.1122 58.6395 11.6548 58.6021 16.0017C58.5816 18.4054 58.7767 19.3153 59.5316 20.3323C61.0445 22.3699 62.2616 22.7451 67.3812 22.7523C72.36 22.7596 73.8469 23.1731 73.8469 24.5497C73.8469 25.7226 72.989 25.9501 68.5715 25.9501C65.2315 25.9501 64.6644 25.8325 64.1684 25.0384C63.7048 24.2958 63.1054 24.1267 60.9374 24.1267H58.2757L58.5848 25.6082C58.9896 27.5492 59.8994 28.9418 61.4115 29.9324C62.4317 30.6011 63.6793 30.736 68.8126 30.7342C76.9841 30.7315 78.4177 30.0235 79.1179 25.6461C79.5578 22.8932 78.6288 20.1467 76.9007 19.0933C75.6927 18.3566 74.5964 18.2039 70.512 18.2026C65.1494 18.2007 63.8183 17.8073 63.8183 16.2246C63.8183 14.4715 64.668 14.0981 68.6585 14.0981C73.0009 14.0981 73.8469 14.3292 73.8469 15.5144C73.8469 16.267 74.2034 16.3773 76.6326 16.3773H79.4187L79.106 14.6679C78.3306 10.4249 76.6071 9.39745 70.0343 9.26069C67.2422 9.20234 64.4451 9.25066 63.8183 9.36827ZM0 20.2288V30.9644H2.27923H4.55845V22.7592V14.554H7.29353H10.0286V22.7592V30.9644H12.5357H15.0429V22.7592V14.554H17.0609C18.6983 14.554 19.2576 14.7805 20.0239 15.7551C20.8868 16.8519 20.9689 17.5648 20.9689 23.9603V30.9644H23.513H26.057L25.9061 22.8731C25.7407 14.0001 25.417 12.7944 22.6459 10.7271C21.4389 9.82594 20.71 9.75939 10.68 9.63038L0 9.49272V20.2288ZM31.4533 25.6939V41.9047H33.9605H36.4676V36.2426V30.581L42.3622 30.4306C48.7559 30.2679 49.5978 29.972 51.7102 27.1421C52.5453 26.0235 52.6501 25.2308 52.6501 20.0241C52.6501 13.6359 52.3876 12.8559 49.513 10.7075C48.3684 9.85192 47.5032 9.75483 39.8546 9.62537L31.4533 9.48314V25.6939ZM46.8253 15.6767C47.8469 16.8646 47.9394 17.3073 47.789 20.2903C47.5428 25.1619 47.1207 25.4943 41.1833 25.4943H36.4676V19.7433V13.9919L41.0812 14.1774C45.4979 14.3548 45.7432 14.419 46.8253 15.6767Z" fill="#3072F2"/>
</svg>
