<svg width="179" height="67" viewBox="0 0 179 67" fill="none" xmlns="http://www.w3.org/2000/svg">
<path fill-rule="evenodd" clip-rule="evenodd" d="M134.211 1.1217C129.942 2.23919 121.713 5.95511 121.713 6.76464C121.713 7.00863 123.507 6.45442 125.7 5.53279C140.352 -0.623043 155.514 1.95161 165.918 12.3617C172.877 19.3254 175.872 26.9775 175.354 36.4728C174.838 45.9194 171.125 54.0888 163.968 61.523C161.795 63.78 160.228 65.6272 160.485 65.6272C160.744 65.6272 162.318 64.5975 163.985 63.339C170.288 58.5798 175.937 49.9478 178.045 41.8508C179.316 36.9715 179.319 28.3389 178.051 23.9505C174.759 12.5519 165.301 3.51236 153.842 0.810337C148.767 -0.385846 139.401 -0.237525 134.211 1.1217ZM136.625 3.93921C124.706 6.07852 114.304 15.7437 111.234 27.53C110.268 31.2363 110.143 39.793 110.999 43.5491C111.728 46.7482 114.905 53.739 115.63 53.739C115.936 53.739 115.982 53.3065 115.736 52.7483C112.142 44.5868 111.44 36.8164 113.654 29.6795C117.912 15.9537 130.234 6.75219 144.357 6.75219C152.182 6.75219 159.858 9.77972 166.068 15.3151C170.52 19.2829 170.077 17.7097 165.445 13.1016C161.398 9.07549 156.828 6.31515 151.735 4.81837C147.859 3.67993 140.466 3.24969 136.625 3.93921ZM136.255 8.73469C131.427 10.0616 127.195 12.5763 123.27 16.4507C107.27 32.2411 114.181 59.425 135.827 65.8469C139.85 67.0408 148.272 67.0453 152.321 65.8565C155.741 64.8517 161.906 61.7602 161.906 61.0491C161.906 60.7978 160.231 61.3758 158.184 62.3336C152.641 64.9275 147.211 65.5542 141.128 64.302C132.639 62.5544 126.585 58.582 122.253 51.9156C120.125 48.6401 117.924 42.0512 118.487 40.6382C118.655 40.2153 118.813 40.5402 118.838 41.3605C118.862 42.1808 119.905 44.8953 121.155 47.3935C128.126 61.3203 145.852 67.3657 160.121 60.6834C164.196 58.7751 169.003 53.8618 171.027 49.5345C178.726 33.084 169.395 13.4317 151.642 8.70695C147.905 7.7123 139.922 7.72646 136.255 8.73469ZM154.066 11.6524C160.804 14.8396 164.695 20.1485 165.981 27.9081C167.541 37.3242 162.254 48.0083 154.772 50.5575C149.551 52.3367 148.58 50.0536 150.851 41.3413C153.48 31.2578 153.656 29.7921 152.517 27.3941C150.427 22.9875 146.291 22.2171 140.964 25.2406C139.233 26.2234 136.96 26.8569 133.894 27.2118C131.409 27.4988 129.151 27.9585 128.877 28.2331C127.683 29.427 129.364 29.9625 134.306 29.9625C138.819 29.9625 139.636 30.1171 140.773 31.1848C141.728 32.0815 142.754 32.3962 144.63 32.3679C146.096 32.3458 147.188 32.5881 147.188 32.9357C147.188 34.2112 144.2 38.5464 139.813 43.6357C137.305 46.5461 135.104 49.6262 134.922 50.4805L134.593 52.0344L132.328 50.7635C128.98 48.8858 124.812 44.0263 123.347 40.2923C122.337 37.721 122.062 35.8517 122.033 31.3778C122 26.3989 122.176 25.3335 123.488 22.5352C127.43 14.1263 135.485 9.43893 145.489 9.73104C149.534 9.84879 150.901 10.155 154.066 11.6524ZM79.2549 11.6343C74.3303 12.5582 72.8233 14.4739 72.7769 19.8723C72.7514 22.8573 72.9937 23.9873 73.9312 25.2503C75.8101 27.7808 77.3216 28.2467 83.6795 28.2557C89.8626 28.2648 91.7092 28.7782 91.7092 30.4879C91.7092 31.9445 90.6438 32.227 85.1576 32.227C81.0098 32.227 80.3056 32.0809 79.6896 31.0948C79.1139 30.1726 78.3695 29.9625 75.6771 29.9625H72.3716L72.7554 31.8024C73.2581 34.2129 74.388 35.9423 76.2658 37.1725C77.5328 38.0029 79.0822 38.1705 85.4571 38.1682C95.6051 38.1649 97.3855 37.2857 98.2551 31.8494C98.8014 28.4307 97.6477 25.0199 95.5015 23.7116C94.0014 22.7968 92.6399 22.6071 87.5676 22.6054C80.9079 22.6032 79.2549 22.1146 79.2549 20.1491C79.2549 17.9718 80.3101 17.5082 85.2658 17.5082C90.6585 17.5082 91.7092 17.7952 91.7092 19.2671C91.7092 20.2017 92.1519 20.3387 95.1687 20.3387H98.6287L98.2404 18.2158C97.2774 12.9465 95.137 11.6705 86.9743 11.5007C83.5069 11.4282 80.0333 11.4882 79.2549 11.6343ZM0 25.1218V38.4541H2.83053H5.66106V28.2642V18.0743H9.0577H12.4543V28.2642V38.4541H15.5679H18.6815V28.2642V18.0743H21.1877C23.2211 18.0743 23.9157 18.3557 24.8673 19.566C25.939 20.928 26.0409 21.8134 26.0409 29.7559V38.4541H29.2003H32.3598L32.1724 28.4057C31.9669 17.3865 31.5649 15.8891 28.1236 13.3218C26.6245 12.2027 25.7193 12.12 13.2633 11.9598L0 11.7888V25.1218ZM39.0613 31.9088V52.0407H42.1749H45.2885V45.0091V37.978L52.6088 37.7912C60.549 37.5891 61.5946 37.2217 64.218 33.7073C65.2551 32.3181 65.3853 31.3336 65.3853 24.8676C65.3853 16.9342 65.0592 15.9656 61.4893 13.2975C60.0678 12.2349 58.9934 12.1143 49.4947 11.9536L39.0613 11.7769V31.9088ZM58.1516 19.4686C59.4202 20.9439 59.5351 21.4936 59.3483 25.1982C59.0426 31.2482 58.5184 31.6609 51.1449 31.6609H45.2885V24.5189V17.3763L51.0181 17.6067C56.5031 17.8269 56.8076 17.9067 58.1516 19.4686ZM96.238 42.983C96.238 43.7376 96.6156 44.1152 97.3703 44.1152C98.1249 44.1152 98.5025 43.7376 98.5025 42.983C98.5025 42.2284 98.1249 41.8508 97.3703 41.8508C96.6156 41.8508 96.238 42.2284 96.238 42.983ZM48.7983 45.3606C48.4247 45.7343 48.119 47.2627 48.119 48.7573C48.119 51.097 48.2764 51.4746 49.2512 51.4746C50.1961 51.4746 50.3834 51.097 50.3834 49.1926C50.3834 47.6862 50.6722 46.7997 51.2326 46.5845C51.6996 46.4051 52.0818 45.9035 52.0818 45.4699C52.0818 44.5001 49.737 44.422 48.7983 45.3606ZM53.2485 45.4886C52.88 45.9324 52.6581 47.3975 52.7549 48.7437L52.9309 51.1915L55.903 51.3625C58.2365 51.4972 58.875 51.3523 58.875 50.6894C58.875 50.1301 58.1572 49.7695 56.7521 49.6223L54.6292 49.4004L57.0352 49.3053C59.2702 49.2169 59.4411 49.0975 59.4411 47.625C59.4411 46.7532 59.1354 45.7343 58.7618 45.3606C57.821 44.4198 54.0631 44.5075 53.2485 45.4886ZM60.8032 45.4659C60.6373 45.8973 60.5818 47.3618 60.6792 48.721L60.8564 51.1915L64.1115 51.3614C66.6958 51.4961 67.3666 51.3568 67.3666 50.686C67.3666 50.0972 66.6386 49.7887 64.9607 49.667C62.818 49.5124 62.5547 49.3381 62.5547 48.0779C62.5547 46.8178 62.818 46.6434 64.9607 46.4889C66.599 46.37 67.3666 46.0541 67.3666 45.4982C67.3666 44.3614 61.2385 44.3314 60.8032 45.4659ZM67.9327 47.3986C67.9327 48.8931 68.2384 50.4216 68.6121 50.7952C68.9857 51.1689 70.5142 51.4746 72.0087 51.4746H74.726V48.0779C74.726 45.4359 74.5375 44.6813 73.8769 44.6813C73.2479 44.6813 73.0277 45.3419 73.0277 47.2288C73.0277 49.5385 72.9009 49.7763 71.673 49.7763C70.183 49.7763 69.6311 48.845 69.6311 46.3332C69.6311 45.2423 69.3429 44.6813 68.7819 44.6813C68.145 44.6813 67.9327 45.3606 67.9327 47.3986ZM75.8582 50.031C75.8582 54.4591 76.0116 55.4373 76.7074 55.4373C77.2978 55.4373 77.5565 54.8435 77.5565 53.4882C77.5565 51.6019 77.633 51.534 79.9517 51.3653C81.9841 51.2181 82.4301 50.9555 82.8915 49.6347C83.2402 48.6378 83.2402 47.5181 82.891 46.5211C82.3934 45.0991 82.0656 44.9496 79.102 44.7945L75.8582 44.6247V50.031ZM84.3844 45.4886C84.0158 45.9324 83.7939 47.3975 83.8907 48.7437L84.0668 51.1915L87.0388 51.3625C89.3723 51.4972 90.0109 51.3523 90.0109 50.6894C90.0109 50.1301 89.2931 49.7695 87.888 49.6223L85.7651 49.4004L88.171 49.3053C90.406 49.2169 90.577 49.0975 90.577 47.625C90.577 46.7532 90.2713 45.7343 89.8977 45.3606C88.9568 44.4198 85.199 44.5075 84.3844 45.4886ZM92.0228 45.3889C91.9034 45.7784 91.6611 47.3069 91.485 48.7856C91.198 51.196 91.2807 51.4746 92.2861 51.4746C93.2213 51.4746 93.4075 51.0896 93.4075 49.1569C93.4075 47.316 93.6402 46.7787 94.5397 46.5438C95.1624 46.3807 95.6719 45.895 95.6719 45.4642C95.6719 44.4667 92.3268 44.3977 92.0228 45.3889ZM96.238 48.0779C96.238 51.097 96.3637 51.4746 97.3703 51.4746C98.3768 51.4746 98.5025 51.097 98.5025 48.0779C98.5025 45.0589 98.3768 44.6813 97.3703 44.6813C96.3637 44.6813 96.238 45.0589 96.238 48.0779ZM56.7521 46.7544C56.3632 46.9118 55.7264 46.9118 55.3369 46.7544C54.948 46.5976 55.2661 46.4691 56.0445 46.4691C56.8229 46.4691 57.1416 46.5976 56.7521 46.7544ZM80.6701 48.0779C80.6701 49.2011 80.3486 49.53 79.1133 49.6721C77.7083 49.834 77.5565 49.6789 77.5565 48.0779C77.5565 46.477 77.7083 46.3219 79.1133 46.4838C80.3486 46.6259 80.6701 46.9548 80.6701 48.0779ZM87.888 46.7544C87.4991 46.9118 86.8622 46.9118 86.4727 46.7544C86.0838 46.5976 86.4019 46.4691 87.1803 46.4691C87.9587 46.4691 88.2775 46.5976 87.888 46.7544Z" fill="white"/>
<path fill-rule="evenodd" clip-rule="evenodd" d="M134.211 1.1217C129.942 2.23919 121.713 5.95511 121.713 6.76464C121.713 7.00863 123.507 6.45442 125.7 5.53279C140.352 -0.623043 155.514 1.95161 165.918 12.3617C172.877 19.3254 175.872 26.9775 175.354 36.4728C174.838 45.9194 171.125 54.0888 163.968 61.523C161.795 63.78 160.228 65.6272 160.485 65.6272C160.744 65.6272 162.318 64.5975 163.985 63.339C170.288 58.5798 175.937 49.9478 178.045 41.8508C179.316 36.9715 179.319 28.3389 178.051 23.9505C174.759 12.5519 165.301 3.51236 153.842 0.810337C148.767 -0.385846 139.401 -0.237525 134.211 1.1217ZM136.625 3.93921C124.706 6.07852 114.304 15.7437 111.234 27.53C110.268 31.2363 110.143 39.793 110.999 43.5491C111.728 46.7482 114.905 53.739 115.63 53.739C115.936 53.739 115.982 53.3065 115.736 52.7483C112.142 44.5868 111.44 36.8164 113.654 29.6795C117.912 15.9537 130.234 6.75219 144.357 6.75219C152.182 6.75219 159.858 9.77972 166.068 15.3151C170.52 19.2829 170.077 17.7097 165.445 13.1016C161.398 9.07549 156.828 6.31515 151.735 4.81837C147.859 3.67993 140.466 3.24969 136.625 3.93921ZM136.255 8.73469C131.427 10.0616 127.195 12.5763 123.27 16.4507C107.27 32.2411 114.181 59.425 135.827 65.8469C139.85 67.0408 148.272 67.0453 152.321 65.8565C155.741 64.8517 161.906 61.7602 161.906 61.0491C161.906 60.7978 160.231 61.3758 158.184 62.3336C152.641 64.9275 147.211 65.5542 141.128 64.302C132.639 62.5544 126.585 58.582 122.253 51.9156C120.125 48.6401 117.924 42.0512 118.487 40.6382C118.655 40.2153 118.813 40.5402 118.838 41.3605C118.862 42.1808 119.905 44.8953 121.155 47.3935C128.126 61.3203 145.852 67.3657 160.121 60.6834C164.196 58.7751 169.003 53.8618 171.027 49.5345C178.726 33.084 169.395 13.4317 151.642 8.70695C147.905 7.7123 139.922 7.72646 136.255 8.73469ZM154.066 11.6524C160.804 14.8396 164.695 20.1485 165.981 27.9081C167.541 37.3242 162.254 48.0083 154.772 50.5575C149.551 52.3367 148.58 50.0536 150.851 41.3413C153.48 31.2578 153.656 29.7921 152.517 27.3941C150.427 22.9875 146.291 22.2171 140.964 25.2406C139.233 26.2234 136.96 26.8569 133.894 27.2118C131.409 27.4988 129.151 27.9585 128.877 28.2331C127.683 29.427 129.364 29.9625 134.306 29.9625C138.819 29.9625 139.636 30.1171 140.773 31.1848C141.728 32.0815 142.754 32.3962 144.63 32.3679C146.096 32.3458 147.188 32.5881 147.188 32.9357C147.188 34.2112 144.2 38.5464 139.813 43.6357C137.305 46.5461 135.104 49.6262 134.922 50.4805L134.593 52.0344L132.328 50.7635C128.98 48.8858 124.812 44.0263 123.347 40.2923C122.337 37.721 122.062 35.8517 122.033 31.3778C122 26.3989 122.176 25.3335 123.488 22.5352C127.43 14.1263 135.485 9.43893 145.489 9.73104C149.534 9.84879 150.901 10.155 154.066 11.6524ZM79.2549 11.6343C74.3303 12.5582 72.8233 14.4739 72.7769 19.8723C72.7514 22.8573 72.9937 23.9873 73.9312 25.2503C75.8101 27.7808 77.3216 28.2467 83.6795 28.2557C89.8626 28.2648 91.7092 28.7782 91.7092 30.4879C91.7092 31.9445 90.6438 32.227 85.1576 32.227C81.0098 32.227 80.3056 32.0809 79.6896 31.0948C79.1139 30.1726 78.3695 29.9625 75.6771 29.9625H72.3716L72.7554 31.8024C73.2581 34.2129 74.388 35.9423 76.2658 37.1725C77.5328 38.0029 79.0822 38.1705 85.4571 38.1682C95.6051 38.1649 97.3855 37.2857 98.2551 31.8494C98.8014 28.4307 97.6477 25.0199 95.5015 23.7116C94.0014 22.7968 92.6399 22.6071 87.5676 22.6054C80.9079 22.6032 79.2549 22.1146 79.2549 20.1491C79.2549 17.9718 80.3101 17.5082 85.2658 17.5082C90.6585 17.5082 91.7092 17.7952 91.7092 19.2671C91.7092 20.2017 92.1519 20.3387 95.1687 20.3387H98.6287L98.2404 18.2158C97.2774 12.9465 95.137 11.6705 86.9743 11.5007C83.5069 11.4282 80.0333 11.4882 79.2549 11.6343ZM0 25.1218V38.4541H2.83053H5.66106V28.2642V18.0743H9.0577H12.4543V28.2642V38.4541H15.5679H18.6815V28.2642V18.0743H21.1877C23.2211 18.0743 23.9157 18.3557 24.8673 19.566C25.939 20.928 26.0409 21.8134 26.0409 29.7559V38.4541H29.2003H32.3598L32.1724 28.4057C31.9669 17.3865 31.5649 15.8891 28.1236 13.3218C26.6245 12.2027 25.7193 12.12 13.2633 11.9598L0 11.7888V25.1218ZM39.0613 31.9088V52.0407H42.1749H45.2885V45.0091V37.978L52.6088 37.7912C60.549 37.5891 61.5946 37.2217 64.218 33.7073C65.2551 32.3181 65.3853 31.3336 65.3853 24.8676C65.3853 16.9342 65.0592 15.9656 61.4893 13.2975C60.0678 12.2349 58.9934 12.1143 49.4947 11.9536L39.0613 11.7769V31.9088ZM58.1516 19.4686C59.4202 20.9439 59.5351 21.4936 59.3483 25.1982C59.0426 31.2482 58.5184 31.6609 51.1449 31.6609H45.2885V24.5189V17.3763L51.0181 17.6067C56.5031 17.8269 56.8076 17.9067 58.1516 19.4686Z" fill="white"/>
<path fill-rule="evenodd" clip-rule="evenodd" d="M134.211 1.1217C129.942 2.23919 121.713 5.95511 121.713 6.76464C121.713 7.00863 123.507 6.45442 125.7 5.53279C140.352 -0.623043 155.514 1.95161 165.918 12.3617C172.877 19.3254 175.872 26.9775 175.354 36.4728C174.838 45.9194 171.125 54.0888 163.968 61.523C161.795 63.78 160.228 65.6272 160.485 65.6272C160.744 65.6272 162.318 64.5975 163.985 63.339C170.288 58.5798 175.937 49.9478 178.045 41.8508C179.316 36.9715 179.319 28.3389 178.051 23.9505C174.759 12.5519 165.301 3.51236 153.842 0.810337C148.767 -0.385846 139.401 -0.237525 134.211 1.1217ZM136.625 3.93921C124.706 6.07852 114.304 15.7437 111.234 27.53C110.268 31.2363 110.143 39.793 110.999 43.5491C111.728 46.7482 114.905 53.739 115.63 53.739C115.936 53.739 115.982 53.3065 115.736 52.7483C112.142 44.5868 111.44 36.8164 113.654 29.6795C117.912 15.9537 130.234 6.75219 144.357 6.75219C152.182 6.75219 159.858 9.77972 166.068 15.3151C170.52 19.2829 170.077 17.7097 165.445 13.1016C161.398 9.07549 156.828 6.31515 151.735 4.81837C147.859 3.67993 140.466 3.24969 136.625 3.93921ZM136.255 8.73469C131.427 10.0616 127.195 12.5763 123.27 16.4507C107.27 32.2411 114.181 59.425 135.827 65.8469C139.85 67.0408 148.272 67.0453 152.321 65.8565C155.741 64.8517 161.906 61.7602 161.906 61.0491C161.906 60.7978 160.231 61.3758 158.184 62.3336C152.641 64.9275 147.211 65.5542 141.128 64.302C132.639 62.5544 126.585 58.582 122.253 51.9156C120.125 48.6401 117.924 42.0512 118.487 40.6382C118.655 40.2153 118.813 40.5402 118.838 41.3605C118.862 42.1808 119.905 44.8953 121.155 47.3935C128.126 61.3203 145.852 67.3657 160.121 60.6834C164.196 58.7751 169.003 53.8618 171.027 49.5345C178.726 33.084 169.395 13.4317 151.642 8.70695C147.905 7.7123 139.922 7.72646 136.255 8.73469ZM154.066 11.6524C160.746 14.8124 164.607 20.0262 165.961 27.7191C167.618 37.1232 162.292 47.9953 154.772 50.5575C149.553 52.3356 148.582 50.0553 150.846 41.3413C154.018 29.1332 153.998 28.3027 150.477 25.1206C148.378 23.2247 147.981 23.0787 145.844 23.4201C144.559 23.6255 142.391 24.4487 141.026 25.2486C139.311 26.2528 137.122 26.8722 133.949 27.2486C131.423 27.5487 129.136 28.0049 128.867 28.2631C127.667 29.414 129.395 29.9625 134.224 29.9625C138.582 29.9625 139.55 30.1414 141.001 31.2142C142.159 32.0702 143.405 32.4376 144.941 32.3764C146.263 32.3238 147.188 32.5457 147.188 32.9148C147.188 34.2106 144.226 38.5158 139.813 43.6357C137.305 46.5461 135.104 49.6262 134.922 50.4805L134.593 52.0344L132.328 50.7635C128.98 48.8858 124.812 44.0263 123.347 40.2923C122.337 37.721 122.062 35.8517 122.033 31.3778C122 26.3989 122.176 25.3335 123.488 22.5352C127.43 14.1263 135.485 9.43893 145.489 9.73104C149.534 9.84879 150.901 10.155 154.066 11.6524ZM79.2549 11.6343C74.3303 12.5582 72.8233 14.4739 72.7769 19.8723C72.7514 22.8573 72.9937 23.9873 73.9312 25.2503C75.8101 27.7808 77.3216 28.2467 83.6795 28.2557C89.8626 28.2648 91.7092 28.7782 91.7092 30.4879C91.7092 31.9445 90.6438 32.227 85.1576 32.227C81.0098 32.227 80.3056 32.0809 79.6896 31.0948C79.1139 30.1726 78.3695 29.9625 75.6771 29.9625H72.3716L72.7554 31.8024C73.2581 34.2129 74.388 35.9423 76.2658 37.1725C77.5328 38.0029 79.0822 38.1705 85.4571 38.1682C95.6051 38.1649 97.3855 37.2857 98.2551 31.8494C98.8014 28.4307 97.6477 25.0199 95.5015 23.7116C94.0014 22.7968 92.6399 22.6071 87.5676 22.6054C80.9079 22.6032 79.2549 22.1146 79.2549 20.1491C79.2549 17.9718 80.3101 17.5082 85.2658 17.5082C90.6585 17.5082 91.7092 17.7952 91.7092 19.2671C91.7092 20.2017 92.1519 20.3387 95.1687 20.3387H98.6287L98.2404 18.2158C97.2774 12.9465 95.137 11.6705 86.9743 11.5007C83.5069 11.4282 80.0333 11.4882 79.2549 11.6343ZM0 25.1218V38.4541H2.83053H5.66106V28.2642V18.0743H9.0577H12.4543V28.2642V38.4541H15.5679H18.6815V28.2642V18.0743H21.1877C23.2211 18.0743 23.9157 18.3557 24.8673 19.566C25.939 20.928 26.0409 21.8134 26.0409 29.7559V38.4541H29.2003H32.3598L32.1724 28.4057C31.9669 17.3865 31.5649 15.8891 28.1236 13.3218C26.6245 12.2027 25.7193 12.12 13.2633 11.9598L0 11.7888V25.1218ZM39.0613 31.9088V52.0407H42.1749H45.2885V45.0091V37.978L52.6088 37.7912C60.549 37.5891 61.5946 37.2217 64.218 33.7073C65.2551 32.3181 65.3853 31.3336 65.3853 24.8676C65.3853 16.9342 65.0592 15.9656 61.4893 13.2975C60.0678 12.2349 58.9934 12.1143 49.4947 11.9536L39.0613 11.7769V31.9088ZM58.1516 19.4686C59.4202 20.9439 59.5351 21.4936 59.3483 25.1982C59.0426 31.2482 58.5184 31.6609 51.1449 31.6609H45.2885V24.5189V17.3763L51.0181 17.6067C56.5031 17.8269 56.8076 17.9067 58.1516 19.4686Z" fill="white"/>
<path fill-rule="evenodd" clip-rule="evenodd" d="M134.211 1.1217C129.942 2.23919 121.713 5.95511 121.713 6.76464C121.713 7.00863 123.507 6.45442 125.7 5.53279C140.352 -0.623043 155.514 1.95161 165.918 12.3617C172.877 19.3254 175.872 26.9775 175.354 36.4728C174.838 45.9194 171.125 54.0888 163.968 61.523C161.795 63.78 160.228 65.6272 160.485 65.6272C160.744 65.6272 162.318 64.5975 163.985 63.339C170.288 58.5798 175.937 49.9478 178.045 41.8508C179.316 36.9715 179.319 28.3389 178.051 23.9505C174.759 12.5519 165.301 3.51236 153.842 0.810337C148.767 -0.385846 139.401 -0.237525 134.211 1.1217ZM136.625 3.93921C124.706 6.07852 114.304 15.7437 111.234 27.53C110.268 31.2363 110.143 39.793 110.999 43.5491C111.728 46.7482 114.905 53.739 115.63 53.739C115.936 53.739 115.982 53.3065 115.736 52.7483C112.142 44.5868 111.44 36.8164 113.654 29.6795C117.912 15.9537 130.234 6.75219 144.357 6.75219C152.182 6.75219 159.858 9.77972 166.068 15.3151C170.52 19.2829 170.077 17.7097 165.445 13.1016C161.398 9.07549 156.828 6.31515 151.735 4.81837C147.859 3.67993 140.466 3.24969 136.625 3.93921ZM136.255 8.73469C131.427 10.0616 127.195 12.5763 123.27 16.4507C107.27 32.2411 114.181 59.425 135.827 65.8469C139.85 67.0408 148.272 67.0453 152.321 65.8565C155.741 64.8517 161.906 61.7602 161.906 61.0491C161.906 60.7978 160.231 61.3758 158.184 62.3336C152.641 64.9275 147.211 65.5542 141.128 64.302C132.639 62.5544 126.585 58.582 122.253 51.9156C120.125 48.6401 117.924 42.0512 118.487 40.6382C118.655 40.2153 118.813 40.5402 118.838 41.3605C118.862 42.1808 119.905 44.8953 121.155 47.3935C128.126 61.3203 145.852 67.3657 160.121 60.6834C164.196 58.7751 169.003 53.8618 171.027 49.5345C178.726 33.084 169.395 13.4317 151.642 8.70695C147.905 7.7123 139.922 7.72646 136.255 8.73469ZM154.066 11.6524C160.746 14.8124 164.607 20.0262 165.961 27.7191C167.169 34.5757 164.711 42.5476 159.969 47.1574C157.024 50.0185 152.799 51.791 151.095 50.879C149.221 49.8759 149.217 47.7371 151.074 40.1989C153.377 30.8542 153.383 28.6039 151.109 25.8458C149.59 24.0026 149.06 23.7354 146.921 23.7354C145.316 23.7354 143.401 24.2986 141.365 25.3697C139.268 26.4731 136.98 27.1326 134.329 27.3986C126.807 28.1544 127.423 29.9393 135.21 29.954C139.067 29.9608 140.197 30.1703 141.372 31.0948C142.248 31.7831 143.669 32.227 145 32.227C146.284 32.227 147.188 32.4987 147.188 32.8848C147.188 34.2095 144.263 38.4728 139.813 43.6357C137.305 46.5461 135.104 49.6262 134.922 50.4805L134.593 52.0344L132.328 50.7635C128.98 48.8858 124.812 44.0263 123.347 40.2923C122.337 37.721 122.062 35.8517 122.033 31.3778C122 26.3989 122.176 25.3335 123.488 22.5352C127.43 14.1263 135.485 9.43893 145.489 9.73104C149.534 9.84879 150.901 10.155 154.066 11.6524ZM79.2549 11.6343C74.3303 12.5582 72.8233 14.4739 72.7769 19.8723C72.7514 22.8573 72.9937 23.9873 73.9312 25.2503C75.8101 27.7808 77.3216 28.2467 83.6795 28.2557C89.8626 28.2648 91.7092 28.7782 91.7092 30.4879C91.7092 31.9445 90.6438 32.227 85.1576 32.227C81.0098 32.227 80.3056 32.0809 79.6896 31.0948C79.1139 30.1726 78.3695 29.9625 75.6771 29.9625H72.3716L72.7554 31.8024C73.2581 34.2129 74.388 35.9423 76.2658 37.1725C77.5328 38.0029 79.0822 38.1705 85.4571 38.1682C95.6051 38.1649 97.3855 37.2857 98.2551 31.8494C98.8014 28.4307 97.6477 25.0199 95.5015 23.7116C94.0014 22.7968 92.6399 22.6071 87.5676 22.6054C80.9079 22.6032 79.2549 22.1146 79.2549 20.1491C79.2549 17.9718 80.3101 17.5082 85.2658 17.5082C90.6585 17.5082 91.7092 17.7952 91.7092 19.2671C91.7092 20.2017 92.1519 20.3387 95.1687 20.3387H98.6287L98.2404 18.2158C97.2774 12.9465 95.137 11.6705 86.9743 11.5007C83.5069 11.4282 80.0333 11.4882 79.2549 11.6343ZM0 25.1218V38.4541H2.83053H5.66106V28.2642V18.0743H9.0577H12.4543V28.2642V38.4541H15.5679H18.6815V28.2642V18.0743H21.1877C23.2211 18.0743 23.9157 18.3557 24.8673 19.566C25.939 20.928 26.0409 21.8134 26.0409 29.7559V38.4541H29.2003H32.3598L32.1724 28.4057C31.9669 17.3865 31.5649 15.8891 28.1236 13.3218C26.6245 12.2027 25.7193 12.12 13.2633 11.9598L0 11.7888V25.1218ZM39.0613 31.9088V52.0407H42.1749H45.2885V45.0091V37.978L52.6088 37.7912C60.549 37.5891 61.5946 37.2217 64.218 33.7073C65.2551 32.3181 65.3853 31.3336 65.3853 24.8676C65.3853 16.9342 65.0592 15.9656 61.4893 13.2975C60.0678 12.2349 58.9934 12.1143 49.4947 11.9536L39.0613 11.7769V31.9088ZM58.1516 19.4686C59.4202 20.9439 59.5351 21.4936 59.3483 25.1982C59.0426 31.2482 58.5184 31.6609 51.1449 31.6609H45.2885V24.5189V17.3763L51.0181 17.6067C56.5031 17.8269 56.8076 17.9067 58.1516 19.4686Z" fill="white"/>
<path fill-rule="evenodd" clip-rule="evenodd" d="M134.211 1.1217C129.942 2.23919 121.713 5.95511 121.713 6.76464C121.713 7.00863 123.507 6.45442 125.7 5.53279C140.352 -0.623043 155.514 1.95161 165.918 12.3617C172.877 19.3254 175.872 26.9775 175.354 36.4728C174.838 45.9194 171.125 54.0888 163.968 61.523C161.795 63.78 160.228 65.6272 160.485 65.6272C160.744 65.6272 162.318 64.5975 163.985 63.339C170.288 58.5798 175.937 49.9478 178.045 41.8508C179.316 36.9715 179.319 28.3389 178.051 23.9505C174.759 12.5519 165.301 3.51236 153.842 0.810337C148.767 -0.385846 139.401 -0.237525 134.211 1.1217ZM136.625 3.93921C124.706 6.07852 114.304 15.7437 111.234 27.53C110.268 31.2363 110.143 39.793 110.999 43.5491C111.728 46.7482 114.905 53.739 115.63 53.739C115.936 53.739 115.982 53.3065 115.736 52.7483C112.142 44.5868 111.44 36.8164 113.654 29.6795C117.912 15.9537 130.234 6.75219 144.357 6.75219C152.182 6.75219 159.858 9.77972 166.068 15.3151C170.52 19.2829 170.077 17.7097 165.445 13.1016C161.398 9.07549 156.828 6.31515 151.735 4.81837C147.859 3.67993 140.466 3.24969 136.625 3.93921ZM136.255 8.73469C131.427 10.0616 127.195 12.5763 123.27 16.4507C107.27 32.2411 114.181 59.425 135.827 65.8469C139.85 67.0408 148.272 67.0453 152.321 65.8565C155.741 64.8517 161.906 61.7602 161.906 61.0491C161.906 60.7978 160.231 61.3758 158.184 62.3336C152.641 64.9275 147.211 65.5542 141.128 64.302C132.639 62.5544 126.585 58.582 122.253 51.9156C120.125 48.6401 117.924 42.0512 118.487 40.6382C118.655 40.2153 118.813 40.5402 118.838 41.3605C118.862 42.1808 119.905 44.8953 121.155 47.3935C128.126 61.3203 145.852 67.3657 160.121 60.6834C164.196 58.7751 169.003 53.8618 171.027 49.5345C178.726 33.084 169.395 13.4317 151.642 8.70695C147.905 7.7123 139.922 7.72646 136.255 8.73469ZM154.066 11.6524C160.804 14.8396 164.695 20.1485 165.981 27.9081C167.541 37.3242 162.254 48.0083 154.772 50.5575C149.548 52.3373 148.64 50.151 150.844 41.0961C152.943 32.4715 153.209 29.4706 152.071 27.2707C150.017 23.2978 146.449 22.7039 141.263 25.4716C138.92 26.7216 136.93 27.2984 134.155 27.5311C126.821 28.1459 127.283 29.5838 134.91 29.8822C138.917 30.039 140.396 30.3271 141.45 31.1559C142.32 31.8403 143.716 32.227 145.318 32.227H147.824L146.286 35.053C145.44 36.6075 142.612 40.3647 140.002 43.403C137.392 46.4413 135.107 49.6262 134.925 50.4805L134.593 52.0344L132.328 50.7635C128.98 48.8858 124.812 44.0263 123.347 40.2923C122.337 37.721 122.062 35.8517 122.033 31.3778C122 26.3989 122.176 25.3335 123.488 22.5352C127.43 14.1263 135.485 9.43893 145.489 9.73104C149.534 9.84879 150.901 10.155 154.066 11.6524ZM79.2549 11.6343C74.3303 12.5582 72.8233 14.4739 72.7769 19.8723C72.7514 22.8573 72.9937 23.9873 73.9312 25.2503C75.8101 27.7808 77.3216 28.2467 83.6795 28.2557C89.8626 28.2648 91.7092 28.7782 91.7092 30.4879C91.7092 31.9445 90.6438 32.227 85.1576 32.227C81.0098 32.227 80.3056 32.0809 79.6896 31.0948C79.1139 30.1726 78.3695 29.9625 75.6771 29.9625H72.3716L72.7554 31.8024C73.2581 34.2129 74.388 35.9423 76.2658 37.1725C77.5328 38.0029 79.0822 38.1705 85.4571 38.1682C95.6051 38.1649 97.3855 37.2857 98.2551 31.8494C98.8014 28.4307 97.6477 25.0199 95.5015 23.7116C94.0014 22.7968 92.6399 22.6071 87.5676 22.6054C80.9079 22.6032 79.2549 22.1146 79.2549 20.1491C79.2549 17.9718 80.3101 17.5082 85.2658 17.5082C90.6585 17.5082 91.7092 17.7952 91.7092 19.2671C91.7092 20.2017 92.1519 20.3387 95.1687 20.3387H98.6287L98.2404 18.2158C97.2774 12.9465 95.137 11.6705 86.9743 11.5007C83.5069 11.4282 80.0333 11.4882 79.2549 11.6343ZM0 25.1218V38.4541H2.83053H5.66106V28.2642V18.0743H9.0577H12.4543V28.2642V38.4541H15.5679H18.6815V28.2642V18.0743H21.1877C23.2211 18.0743 23.9157 18.3557 24.8673 19.566C25.939 20.928 26.0409 21.8134 26.0409 29.7559V38.4541H29.2003H32.3598L32.1724 28.4057C31.9669 17.3865 31.5649 15.8891 28.1236 13.3218C26.6245 12.2027 25.7193 12.12 13.2633 11.9598L0 11.7888V25.1218ZM39.0613 31.9088V52.0407H42.1749H45.2885V45.0091V37.978L52.6088 37.7912C60.549 37.5891 61.5946 37.2217 64.218 33.7073C65.2551 32.3181 65.3853 31.3336 65.3853 24.8676C65.3853 16.9342 65.0592 15.9656 61.4893 13.2975C60.0678 12.2349 58.9934 12.1143 49.4947 11.9536L39.0613 11.7769V31.9088ZM58.1516 19.4686C59.4202 20.9439 59.5351 21.4936 59.3483 25.1982C59.0426 31.2482 58.5184 31.6609 51.1449 31.6609H45.2885V24.5189V17.3763L51.0181 17.6067C56.5031 17.8269 56.8076 17.9067 58.1516 19.4686Z" fill="white"/>
<path fill-rule="evenodd" clip-rule="evenodd" d="M134.211 1.1217C129.942 2.23919 121.713 5.95511 121.713 6.76464C121.713 7.00863 123.507 6.45442 125.7 5.53279C140.352 -0.623043 155.514 1.95161 165.918 12.3617C172.877 19.3254 175.872 26.9775 175.354 36.4728C174.838 45.9194 171.125 54.0888 163.968 61.523C161.795 63.78 160.228 65.6272 160.485 65.6272C160.744 65.6272 162.318 64.5975 163.985 63.339C170.288 58.5798 175.937 49.9478 178.045 41.8508C179.316 36.9715 179.319 28.3389 178.051 23.9505C174.759 12.5519 165.301 3.51236 153.842 0.810337C148.767 -0.385846 139.401 -0.237525 134.211 1.1217ZM136.625 3.93921C124.706 6.07852 114.304 15.7437 111.234 27.53C110.268 31.2363 110.143 39.793 110.999 43.5491C111.728 46.7482 114.905 53.739 115.63 53.739C115.936 53.739 115.982 53.3065 115.736 52.7483C112.142 44.5868 111.44 36.8164 113.654 29.6795C117.912 15.9537 130.234 6.75219 144.357 6.75219C152.182 6.75219 159.858 9.77972 166.068 15.3151C170.52 19.2829 170.077 17.7097 165.445 13.1016C161.398 9.07549 156.828 6.31515 151.735 4.81837C147.859 3.67993 140.466 3.24969 136.625 3.93921ZM136.255 8.73469C131.427 10.0616 127.195 12.5763 123.27 16.4507C107.27 32.2411 114.181 59.425 135.827 65.8469C139.85 67.0408 148.272 67.0453 152.321 65.8565C155.741 64.8517 161.906 61.7602 161.906 61.0491C161.906 60.7978 160.231 61.3758 158.184 62.3336C152.641 64.9275 147.211 65.5542 141.128 64.302C132.639 62.5544 126.585 58.582 122.253 51.9156C120.125 48.6401 117.924 42.0512 118.487 40.6382C118.655 40.2153 118.813 40.5402 118.838 41.3605C118.862 42.1808 119.905 44.8953 121.155 47.3935C128.126 61.3203 145.852 67.3657 160.121 60.6834C164.196 58.7751 169.003 53.8618 171.027 49.5345C178.726 33.084 169.395 13.4317 151.642 8.70695C147.905 7.7123 139.922 7.72646 136.255 8.73469ZM154.066 11.6524C160.746 14.8124 164.607 20.0262 165.961 27.7191C167.169 34.5757 164.711 42.5476 159.969 47.1574C157.024 50.0185 152.799 51.791 151.095 50.879C149.111 49.817 149.187 47.4054 151.492 38.1711C153.346 30.7421 153.23 28.6894 150.802 26.0015C148.241 23.1676 146.399 23.0566 141.748 25.4558C139.385 26.6746 137.126 27.3143 134 27.6517C126.764 28.4312 127.146 29.4044 134.85 29.8193C138.544 30.0186 140.419 30.373 141.146 31.0093C141.734 31.5244 143.255 31.936 144.67 31.9626C146.038 31.9881 147.307 32.1579 147.489 32.3396C148.067 32.9176 144.358 38.3647 139.731 43.7319C137.267 46.5891 135.104 49.6262 134.922 50.4805L134.593 52.0344L132.328 50.7635C128.98 48.8858 124.812 44.0263 123.347 40.2923C122.337 37.721 122.062 35.8517 122.033 31.3778C122 26.3989 122.176 25.3335 123.488 22.5352C127.43 14.1263 135.485 9.43893 145.489 9.73104C149.534 9.84879 150.901 10.155 154.066 11.6524ZM79.2549 11.6343C74.3303 12.5582 72.8233 14.4739 72.7769 19.8723C72.7514 22.8573 72.9937 23.9873 73.9312 25.2503C75.8101 27.7808 77.3216 28.2467 83.6795 28.2557C89.8626 28.2648 91.7092 28.7782 91.7092 30.4879C91.7092 31.9445 90.6438 32.227 85.1576 32.227C81.0098 32.227 80.3056 32.0809 79.6896 31.0948C79.1139 30.1726 78.3695 29.9625 75.6771 29.9625H72.3716L72.7554 31.8024C73.2581 34.2129 74.388 35.9423 76.2658 37.1725C77.5328 38.0029 79.0822 38.1705 85.4571 38.1682C95.6051 38.1649 97.3855 37.2857 98.2551 31.8494C98.8014 28.4307 97.6477 25.0199 95.5015 23.7116C94.0014 22.7968 92.6399 22.6071 87.5676 22.6054C80.9079 22.6032 79.2549 22.1146 79.2549 20.1491C79.2549 17.9718 80.3101 17.5082 85.2658 17.5082C90.6585 17.5082 91.7092 17.7952 91.7092 19.2671C91.7092 20.2017 92.1519 20.3387 95.1687 20.3387H98.6287L98.2404 18.2158C97.2774 12.9465 95.137 11.6705 86.9743 11.5007C83.5069 11.4282 80.0333 11.4882 79.2549 11.6343ZM0 25.1218V38.4541H2.83053H5.66106V28.2642V18.0743H9.0577H12.4543V28.2642V38.4541H15.5679H18.6815V28.2642V18.0743H21.1877C23.2211 18.0743 23.9157 18.3557 24.8673 19.566C25.939 20.928 26.0409 21.8134 26.0409 29.7559V38.4541H29.2003H32.3598L32.1724 28.4057C31.9669 17.3865 31.5649 15.8891 28.1236 13.3218C26.6245 12.2027 25.7193 12.12 13.2633 11.9598L0 11.7888V25.1218ZM39.0613 31.9088V52.0407H42.1749H45.2885V45.0091V37.978L52.6088 37.7912C60.549 37.5891 61.5946 37.2217 64.218 33.7073C65.2551 32.3181 65.3853 31.3336 65.3853 24.8676C65.3853 16.9342 65.0592 15.9656 61.4893 13.2975C60.0678 12.2349 58.9934 12.1143 49.4947 11.9536L39.0613 11.7769V31.9088ZM58.1516 19.4686C59.4202 20.9439 59.5351 21.4936 59.3483 25.1982C59.0426 31.2482 58.5184 31.6609 51.1449 31.6609H45.2885V24.5189V17.3763L51.0181 17.6067C56.5031 17.8269 56.8076 17.9067 58.1516 19.4686Z" fill="white"/>
<path fill-rule="evenodd" clip-rule="evenodd" d="M134.211 1.1217C129.942 2.23919 121.713 5.95511 121.713 6.76464C121.713 7.00863 123.507 6.45442 125.7 5.53279C140.352 -0.623043 155.514 1.95161 165.918 12.3617C172.877 19.3254 175.872 26.9775 175.354 36.4728C174.838 45.9194 171.125 54.0888 163.968 61.523C161.795 63.78 160.228 65.6272 160.485 65.6272C160.744 65.6272 162.318 64.5975 163.985 63.339C170.288 58.5798 175.937 49.9478 178.045 41.8508C179.316 36.9715 179.319 28.3389 178.051 23.9505C174.759 12.5519 165.301 3.51236 153.842 0.810337C148.767 -0.385846 139.401 -0.237525 134.211 1.1217ZM136.625 3.93921C124.706 6.07852 114.304 15.7437 111.234 27.53C110.268 31.2363 110.143 39.793 110.999 43.5491C111.728 46.7482 114.905 53.739 115.63 53.739C115.936 53.739 115.982 53.3065 115.736 52.7483C112.142 44.5868 111.44 36.8164 113.654 29.6795C117.912 15.9537 130.234 6.75219 144.357 6.75219C152.182 6.75219 159.858 9.77972 166.068 15.3151C170.52 19.2829 170.077 17.7097 165.445 13.1016C161.398 9.07549 156.828 6.31515 151.735 4.81837C147.859 3.67993 140.466 3.24969 136.625 3.93921ZM136.255 8.73469C131.427 10.0616 127.195 12.5763 123.27 16.4507C107.27 32.2411 114.181 59.425 135.827 65.8469C139.85 67.0408 148.272 67.0453 152.321 65.8565C155.741 64.8517 161.906 61.7602 161.906 61.0491C161.906 60.7978 160.231 61.3758 158.184 62.3336C152.641 64.9275 147.211 65.5542 141.128 64.302C132.639 62.5544 126.585 58.582 122.253 51.9156C120.125 48.6401 117.924 42.0512 118.487 40.6382C118.655 40.2153 118.813 40.5402 118.838 41.3605C118.862 42.1808 119.905 44.8953 121.155 47.3935C128.126 61.3203 145.852 67.3657 160.121 60.6834C164.196 58.7751 169.003 53.8618 171.027 49.5345C178.726 33.084 169.395 13.4317 151.642 8.70695C147.905 7.7123 139.922 7.72646 136.255 8.73469ZM154.066 11.6524C160.746 14.8124 164.607 20.0262 165.961 27.7191C167.618 37.1232 162.292 47.9953 154.772 50.5575C149.956 52.1986 148.736 50.1572 150.336 43.1341C150.886 40.7157 151.399 38.3551 151.475 37.888C151.551 37.421 151.92 35.4402 152.294 33.4865C153.095 29.3047 152.537 27.3573 149.902 25.1393C147.701 23.2881 145.736 23.3685 141.734 25.4739C139.38 26.7114 137.14 27.359 133.955 27.7225C131.495 28.0027 129.347 28.3673 129.183 28.5314C128.495 29.2187 129.845 29.5317 134.558 29.7797C138.098 29.9659 140.174 30.3764 141.713 31.1961C143.142 31.9569 144.437 32.2394 145.512 32.0243C146.41 31.8448 147.287 31.9303 147.463 32.2139C147.975 33.0433 144.562 38.1275 139.731 43.7319C137.267 46.5891 135.104 49.6262 134.922 50.4805L134.593 52.0344L132.328 50.7635C128.98 48.8858 124.812 44.0263 123.347 40.2923C122.337 37.721 122.062 35.8517 122.033 31.3778C122 26.3989 122.176 25.3335 123.488 22.5352C127.43 14.1263 135.485 9.43893 145.489 9.73104C149.534 9.84879 150.901 10.155 154.066 11.6524ZM79.2549 11.6343C74.3303 12.5582 72.8233 14.4739 72.7769 19.8723C72.7514 22.8573 72.9937 23.9873 73.9312 25.2503C75.8101 27.7808 77.3216 28.2467 83.6795 28.2557C89.8626 28.2648 91.7092 28.7782 91.7092 30.4879C91.7092 31.9445 90.6438 32.227 85.1576 32.227C81.0098 32.227 80.3056 32.0809 79.6896 31.0948C79.1139 30.1726 78.3695 29.9625 75.6771 29.9625H72.3716L72.7554 31.8024C73.2581 34.2129 74.388 35.9423 76.2658 37.1725C77.5328 38.0029 79.0822 38.1705 85.4571 38.1682C95.6051 38.1649 97.3855 37.2857 98.2551 31.8494C98.8014 28.4307 97.6477 25.0199 95.5015 23.7116C94.0014 22.7968 92.6399 22.6071 87.5676 22.6054C80.9079 22.6032 79.2549 22.1146 79.2549 20.1491C79.2549 17.9718 80.3101 17.5082 85.2658 17.5082C90.6585 17.5082 91.7092 17.7952 91.7092 19.2671C91.7092 20.2017 92.1519 20.3387 95.1687 20.3387H98.6287L98.2404 18.2158C97.2774 12.9465 95.137 11.6705 86.9743 11.5007C83.5069 11.4282 80.0333 11.4882 79.2549 11.6343ZM0 25.1218V38.4541H2.83053H5.66106V28.2642V18.0743H9.0577H12.4543V28.2642V38.4541H15.5679H18.6815V28.2642V18.0743H21.1877C23.2211 18.0743 23.9157 18.3557 24.8673 19.566C25.939 20.928 26.0409 21.8134 26.0409 29.7559V38.4541H29.2003H32.3598L32.1724 28.4057C31.9669 17.3865 31.5649 15.8891 28.1236 13.3218C26.6245 12.2027 25.7193 12.12 13.2633 11.9598L0 11.7888V25.1218ZM39.0613 31.9088V52.0407H42.1749H45.2885V45.0091V37.978L52.6088 37.7912C60.549 37.5891 61.5946 37.2217 64.218 33.7073C65.2551 32.3181 65.3853 31.3336 65.3853 24.8676C65.3853 16.9342 65.0592 15.9656 61.4893 13.2975C60.0678 12.2349 58.9934 12.1143 49.4947 11.9536L39.0613 11.7769V31.9088ZM58.1516 19.4686C59.4202 20.9439 59.5351 21.4936 59.3483 25.1982C59.0426 31.2482 58.5184 31.6609 51.1449 31.6609H45.2885V24.5189V17.3763L51.0181 17.6067C56.5031 17.8269 56.8076 17.9067 58.1516 19.4686Z" fill="white"/>
</svg>
